<svg width="457" height="129" viewBox="0 0 457 129" fill="none" xmlns="http://www.w3.org/2000/svg">
<path fill-rule="evenodd" clip-rule="evenodd" d="M64.4938 91.443C53.4151 102.371 38.5262 107.101 24.9749 102.449C4.32962 95.3631 -5.39322 69.1856 3.25833 43.9804C11.9099 18.7751 55.3547 -5.08601 76 2.00038C87.0936 5.80819 89.3468 17.7768 87.7148 31.9471C91.6104 31.3039 95.5728 31.5664 99.3822 32.874C104.213 34.5322 108.206 37.668 111.182 41.7819C117.703 34.7916 126.722 30.8597 136.245 31.8266C140.392 32.2476 144.258 33.5593 147.713 35.5796C155.927 11.6223 172.881 -0.00953465 188.078 3.39231C194.564 4.84403 199.791 8.82368 203.403 14.8579C214.389 7.45593 226.846 4.47459 235.548 6.42249C250.795 9.83537 252.626 17.9535 250.189 30.2322C253.549 29.6585 256.996 29.7118 260.42 30.4784C268.218 32.224 274.545 37.3648 278.658 44.4244C290.2 27.9392 305.962 19.2776 318.553 24.1594C324.594 26.5015 329.072 31.6383 331.811 38.553C345.116 28.4758 360.636 24.7866 371.5 31.0004C374.191 32.5395 376.431 34.5918 378.236 37.0534C388.493 26.6202 401.526 20.0092 412 26.0001C414.824 27.6155 417.26 30.0316 419.288 33.0044C427.246 28.3662 435.973 25.7552 443.5 26.5003C462.766 28.4078 460.185 50.2965 441.5 71C440.964 76.4092 440.991 81.0359 441.015 85.0242C441.076 95.6214 441.112 101.712 430.5 106C424.039 108.611 415.992 104.654 409.195 97.7162C399.333 106.687 387.151 111.306 377 105.5C374.374 103.998 372.058 101.898 370.079 99.3631C355.19 120.515 328.88 134.728 313.621 126C309.403 123.588 306.436 119.654 304.583 114.732C292.095 122.587 278.206 125.512 269.149 122C262.058 119.251 259.075 113 258.818 104.595C253.94 106.376 248.737 106.837 243.586 105.683C236.856 104.177 231.223 100.142 227.161 94.5277C218.844 105.213 208.647 110.915 199.146 108.788C193.615 107.55 189.001 103.811 185.526 98.2966C178.634 104.47 171.014 107.373 163.796 105.757C157.667 104.385 152.665 99.943 149.089 93.4162C140.608 99.3183 129.952 102.409 121 101.5C113.395 100.728 108.283 97.1973 105.111 91.822C97.0107 100.044 86.1139 103.671 76.2443 100.283C71.4398 98.6341 67.464 95.5236 64.4938 91.443Z" fill="#012927"/>
<g filter="url(#filter0_d_30_186)">
<path d="M47.6849 23.09C55.5569 21.5047 61.6795 22.4887 66.0529 26.042C68.1302 27.7367 69.4969 30.1967 70.1529 33.422C70.8635 36.6473 70.5082 40.2553 69.0869 44.246C68.4855 46.1047 67.4469 47.4987 65.9709 48.428C64.4949 49.3573 62.9642 49.904 61.3789 50.068C59.8482 50.1773 58.4542 49.986 57.1969 49.494C55.9395 48.9473 55.2562 48.182 55.1469 47.198L54.4089 45.558C53.0969 43.59 50.8282 43.344 47.6029 44.82C44.8149 46.0773 42.0269 48.264 39.2389 51.38C36.2869 54.7147 34.3735 57.7213 33.4989 60.4C32.5149 63.352 32.0229 65.2927 32.0229 66.222C31.9135 68.2993 32.6515 70.158 34.2369 71.798C36.5329 73.274 38.8289 73.9573 41.1249 73.848C43.4209 73.684 45.4709 73.1647 47.2749 72.29C49.0789 71.3607 50.5549 70.322 51.7029 69.174C52.8509 68.026 53.4249 67.206 53.4249 66.714C53.5889 66.386 53.7529 66.058 53.9169 65.73C54.0809 65.402 54.2175 65.074 54.3269 64.746C54.1082 64.746 54.1629 64.746 54.4909 64.746C54.8189 64.6913 54.9009 64.6913 54.7369 64.746C54.5729 64.746 54.6549 64.7733 54.9829 64.828L55.4749 64.992C52.7962 67.3973 50.1995 67.8893 47.6849 66.468C46.7009 65.8667 45.8262 65.238 45.0609 64.582C44.2955 63.8713 43.5849 63.5433 42.9289 63.598C41.7262 62.942 41.4529 61.6573 42.1089 59.744C42.3822 58.9787 42.8742 58.268 43.5849 57.612C44.3502 56.9013 45.3069 56.4093 46.4549 56.136C51.9215 53.7853 56.9782 53.2387 61.6249 54.496C63.7022 55.0427 65.1235 56.1633 65.8889 57.858C66.7089 59.498 67.0642 61.3567 66.9549 63.434C66.8455 65.5113 66.3809 67.616 65.5609 69.748C64.7955 71.88 63.9482 73.602 63.0189 74.914C62.0895 76.1713 60.7775 77.6747 59.0829 79.424C57.4429 81.1733 55.3655 82.868 52.8509 84.508C46.6735 88.4987 40.0589 90.412 33.0069 90.248C22.7842 90.084 16.7435 85.902 14.8849 77.702C14.2835 75.078 14.0102 72.126 14.0649 68.846C14.6115 59.334 17.4542 50.4507 22.5929 42.196C25.0529 38.26 28.3602 34.3787 32.5149 30.552C35.1389 28.2013 38.0909 26.3973 41.3709 25.14C43.1202 24.4293 45.2249 23.746 47.6849 23.09ZM78.982 49.986C80.13 49.166 81.5513 48.9747 83.246 49.412C83.574 49.4667 83.902 49.494 84.23 49.494C85.4326 47.034 87.51 45.7493 90.462 45.64C91.2273 45.5853 92.2933 45.4487 93.66 45.23C95.0266 45.0113 96.6666 45.066 98.58 45.394C100.548 45.722 102.27 46.296 103.746 47.116C106.971 48.8653 108.912 51.38 109.568 54.66C110.88 59.4707 110.689 64.7187 108.994 70.404C107.19 76.6907 104.129 81.72 99.81 85.492C97.842 87.2413 95.7646 88.3347 93.578 88.772C91.3913 89.264 89.4233 89.5373 87.674 89.592C85.9246 89.6467 84.312 89.6467 82.836 89.592C81.4146 89.592 80.0206 89.4553 78.654 89.182C75.702 88.5807 73.2693 87.1867 71.356 85C69.1146 82.54 68.158 78.7133 68.486 73.52C68.7046 68.928 69.8526 64.3087 71.93 59.662C74.062 54.9607 76.4126 51.7353 78.982 49.986ZM93.414 66.468C92.0473 66.9053 90.7626 67.0967 89.56 67.042C88.9586 67.6433 88.412 68.2993 87.92 69.01C87.4826 69.666 86.8813 70.2947 86.116 70.896C85.3506 71.4427 84.968 71.6613 84.968 71.552C84.0386 72.864 83.2733 74.2307 82.672 75.652C82.0706 77.0187 82.0706 78.4127 82.672 79.834C84.8586 80.0527 86.4713 79.998 87.51 79.67C88.5486 79.342 89.5053 78.7133 90.38 77.784C91.3093 76.8547 92.02 75.7613 92.512 74.504C93.496 72.1533 93.7966 69.4747 93.414 66.468ZM148.06 49.822L148.388 49.904C148.497 49.904 148.552 49.9313 148.552 49.986C149.973 49.4393 151.149 49.8493 152.078 51.216C152.679 52.1453 153.144 53.5667 153.472 55.48C153.581 58.104 153.308 61.7393 152.652 66.386C151.395 75.7887 150.711 81.392 150.602 83.196C150.711 85.1093 149.536 86.4213 147.076 87.132C144.944 87.788 142.812 87.7607 140.68 87.05C138.439 86.2847 137.509 85.1093 137.892 83.524C137.455 84.344 137.017 84.918 136.58 85.246C136.143 85.6287 135.268 86.1207 133.956 86.722C132.699 87.378 130.895 87.8973 128.544 88.28C126.193 88.7173 123.843 88.8267 121.492 88.608C119.141 88.444 116.982 87.87 115.014 86.886C113.101 85.9567 111.816 84.4807 111.16 82.458C109.903 78.522 110.067 73.52 111.652 67.452C112.745 63.4613 114.713 59.9353 117.556 56.874C120.836 53.3753 124.553 50.478 128.708 48.182C131.824 46.4873 134.831 45.476 137.728 45.148C138.712 45.0387 139.559 45.066 140.27 45.23C141.035 45.394 141.828 45.558 142.648 45.722C143.523 45.886 144.343 46.132 145.108 46.46C147.076 47.28 148.06 48.4007 148.06 49.822ZM132.89 71.552C133.273 70.7867 133.573 69.83 133.792 68.682C134.065 67.534 134.421 66.2767 134.858 64.91C130.43 66.714 127.041 68.928 124.69 71.552C122.121 74.4493 122.285 76.4447 125.182 77.538C127.697 78.194 129.528 77.784 130.676 76.308C131.168 75.652 131.605 74.832 131.988 73.848C132.371 72.864 132.835 71.8527 133.382 70.814C133.218 71.0873 133.054 71.3333 132.89 71.552ZM176.689 23.664L176.771 23.336L177.509 22.598C178.11 21.1767 178.766 20.3293 179.477 20.056C179.859 19.9467 180.351 19.81 180.953 19.646C181.554 19.482 182.347 19.072 183.331 18.416C183.713 17.6507 184.506 17.3227 185.709 17.432C186.911 17.4867 188.087 17.8693 189.235 18.58C190.437 19.236 191.394 20.1653 192.105 21.368C192.87 22.5707 193.061 23.828 192.679 25.14C192.296 26.3973 191.968 27.354 191.695 28.01C191.476 28.6113 191.23 29.1853 190.957 29.732C190.738 30.2787 190.437 30.9073 190.055 31.618C189.727 32.274 189.289 33.176 188.743 34.324L186.037 39.982C185.763 40.6927 185.517 41.1027 185.299 41.212C185.135 41.3213 184.971 41.5127 184.807 41.786C185.299 41.6767 185.709 41.5947 186.037 41.54C186.365 41.4853 186.693 41.4307 187.021 41.376C187.786 41.2667 188.661 41.1573 189.645 41.048C190.246 41.1573 190.765 41.212 191.203 41.212H192.351C193.007 41.212 193.799 41.4033 194.729 41.786C195.658 42.114 196.259 42.7153 196.533 43.59C196.806 44.4647 196.833 45.3667 196.615 46.296C196.396 47.1707 195.959 47.9907 195.303 48.756C194.647 49.5213 193.799 49.9313 192.761 49.986C188.005 51.298 184.615 52.0087 182.593 52.118L182.101 52.692V52.774C181.554 54.086 180.953 55.7533 180.297 57.776C179.695 59.744 179.012 61.9033 178.247 64.254C177.536 66.55 176.798 68.9553 176.033 71.47C175.267 73.93 174.475 76.308 173.655 78.604C171.031 86.312 169.117 90.494 167.915 91.15C167.477 91.3687 167.013 91.5053 166.521 91.56C166.083 91.6693 165.837 91.7513 165.783 91.806C163.869 91.6967 162.284 91.314 161.027 90.658C159.769 90.002 158.922 89.3733 158.485 88.772C158.047 88.1707 157.938 87.4873 158.157 86.722C159.195 77.21 161.273 66.796 164.389 55.48C163.295 55.48 162.53 55.5893 162.093 55.808C161.273 56.2453 160.289 56.4913 159.141 56.546H159.059C158.184 56.4913 157.391 56.0813 156.681 55.316C155.97 54.5507 155.533 53.676 155.369 52.692C155.205 51.708 155.369 50.6967 155.861 49.658C156.353 48.6193 157.337 47.7993 158.813 47.198C160.562 46.706 161.847 46.296 162.667 45.968C164.252 45.312 165.564 44.8473 166.603 44.574C167.696 44.3007 168.297 44.1367 168.407 44.082C168.571 43.9727 168.68 43.8907 168.735 43.836C168.899 43.7267 169.309 43.672 169.965 43.672C170.293 42.0867 170.621 40.474 170.949 38.834C171.277 37.194 171.687 35.5267 172.179 33.832C173.272 29.896 174.775 26.5067 176.689 23.664ZM218.718 64.008C217.242 68.272 215.738 72.372 214.208 76.308C212.677 80.244 211.392 83.2233 210.354 85.246C209.37 87.3233 208.495 88.7447 207.73 89.51C206.964 90.2753 206.172 90.7947 205.352 91.068C204.586 91.3413 203.794 91.4507 202.974 91.396C202.208 91.3413 201.416 91.2867 200.596 91.232C196.004 90.5213 194.582 87.214 196.332 81.31C197.48 76.6087 198.409 72.782 199.12 69.83C199.83 66.8233 200.404 64.3633 200.842 62.45C201.334 60.482 201.744 58.8693 202.072 57.612C202.4 56.3 202.755 55.0153 203.138 53.758C203.52 52.5007 203.985 51.0793 204.532 49.494C205.133 47.9087 205.898 45.804 206.828 43.18C204.75 43.4533 202.892 43.2347 201.252 42.524C198.846 41.4853 197.862 39.244 198.3 35.8C198.518 34.2147 199.366 32.7387 200.842 31.372C201.607 30.6613 202.509 29.896 203.548 29.076C205.68 27.3813 209.916 25.5773 216.258 23.664C222.818 21.696 228.448 20.7667 233.15 20.876C234.407 20.6573 235.692 20.8213 237.004 21.368C238.37 21.86 239.464 22.5433 240.284 23.418C241.104 24.2927 241.514 25.2493 241.514 26.288C241.568 27.3267 240.912 28.256 239.546 29.076C238.89 29.5133 238.425 30.2513 238.152 31.29C237.878 32.274 237.578 33.34 237.25 34.488C236.922 35.5813 236.43 36.5927 235.774 37.522C235.172 38.4513 234.188 38.998 232.822 39.162C232.111 39.5447 231.1 39.818 229.788 39.982C228.53 40.146 227.683 40.2827 227.246 40.392C226.863 40.4467 226.644 40.5833 226.59 40.802C225.606 43.6993 224.43 47.2253 223.064 51.38C221.697 55.48 220.248 59.6893 218.718 64.008ZM207.648 42.278C207.538 42.278 207.484 42.3053 207.484 42.36C207.484 42.36 207.538 42.36 207.648 42.36V42.278ZM268.898 49.822L269.226 49.904C269.335 49.904 269.39 49.9313 269.39 49.986C270.811 49.4393 271.986 49.8493 272.916 51.216C273.517 52.1453 273.982 53.5667 274.31 55.48C274.419 58.104 274.146 61.7393 273.49 66.386C272.232 75.7887 271.549 81.392 271.44 83.196C271.549 85.1093 270.374 86.4213 267.914 87.132C265.782 87.788 263.65 87.7607 261.518 87.05C259.276 86.2847 258.347 85.1093 258.73 83.524C258.292 84.344 257.855 84.918 257.418 85.246C256.98 85.6287 256.106 86.1207 254.794 86.722C253.536 87.378 251.732 87.8973 249.382 88.28C247.031 88.7173 244.68 88.8267 242.33 88.608C239.979 88.444 237.82 87.87 235.852 86.886C233.938 85.9567 232.654 84.4807 231.998 82.458C230.74 78.522 230.904 73.52 232.49 67.452C233.583 63.4613 235.551 59.9353 238.394 56.874C241.674 53.3753 245.391 50.478 249.546 48.182C252.662 46.4873 255.668 45.476 258.566 45.148C259.55 45.0387 260.397 45.066 261.108 45.23C261.873 45.394 262.666 45.558 263.486 45.722C264.36 45.886 265.18 46.132 265.946 46.46C267.914 47.28 268.898 48.4007 268.898 49.822ZM253.728 71.552C254.11 70.7867 254.411 69.83 254.63 68.682C254.903 67.534 255.258 66.2767 255.696 64.91C251.268 66.714 247.878 68.928 245.528 71.552C242.958 74.4493 243.122 76.4447 246.02 77.538C248.534 78.194 250.366 77.784 251.514 76.308C252.006 75.652 252.443 74.832 252.826 73.848C253.208 72.864 253.673 71.8527 254.22 70.814C254.056 71.0873 253.892 71.3333 253.728 71.552ZM295.067 51.462C297.8 47.362 301.599 44.902 306.465 44.082C308.05 43.8087 309.991 43.6173 312.287 43.508C314.637 43.3987 316.633 43.918 318.273 45.066C319.967 46.214 321.225 47.69 322.045 49.494C323.466 52.7193 323.685 56.6827 322.701 61.384C322.154 63.9533 321.498 66.796 320.733 69.912C319.967 72.9733 318.819 76.0073 317.289 79.014C315.758 82.0207 313.763 84.836 311.303 87.46C308.843 90.084 305.645 92.1613 301.709 93.692C299.358 94.6213 297.281 94.9493 295.477 94.676C293.727 94.4573 292.415 94.102 291.541 93.61C290.666 93.118 290.065 92.4073 289.737 91.478C288.643 94.594 287.605 97.7373 286.621 100.908C285.691 104.133 284.434 107.195 282.849 110.092C281.755 110.803 280.416 111.322 278.831 111.65C277.245 112.033 275.687 111.951 274.157 111.404C272.626 110.912 271.533 109.983 270.877 108.616C270.166 107.304 269.811 105.855 269.811 104.27C269.811 102.138 270.33 99.5413 271.369 96.48C272.899 91.9427 274.157 88.444 275.141 85.984C276.07 83.524 276.671 81.9387 276.945 81.228C277.218 80.4627 277.491 79.67 277.765 78.85C278.967 75.6793 279.842 73.11 280.389 71.142C280.99 69.1193 281.537 67.37 282.029 65.894V65.812C282.575 63.4067 283.423 60.8647 284.571 58.186C285.773 55.4527 286.593 53.7853 287.031 53.184C287.96 52.2547 288.917 51.6807 289.901 51.462C290.885 51.2433 292.005 51.1067 293.263 51.052H293.509L295.067 51.462ZM301.299 65.156C300.643 66.304 299.549 67.37 298.019 68.354L297.281 70.076C296.734 71.4973 296.215 72.946 295.723 74.422C295.231 75.898 294.684 77.3467 294.083 78.768C294.629 79.3147 295.039 79.834 295.313 80.326C298.374 77.6473 301.162 74.1213 303.677 69.748C304.661 67.944 305.289 66.14 305.563 64.336C305.891 62.532 305.973 61.384 305.809 60.892C305.645 60.4 305.371 60.154 304.989 60.154C304.661 60.154 304.305 60.2633 303.923 60.482C303.595 60.646 303.321 60.8373 303.103 61.056C302.939 61.22 302.966 61.22 303.185 61.056C302.583 61.7667 302.146 62.3953 301.873 62.942C301.599 63.434 301.408 64.172 301.299 65.156ZM343.274 51.462C346.007 47.362 349.806 44.902 354.672 44.082C356.257 43.8087 358.198 43.6173 360.494 43.508C362.844 43.3987 364.84 43.918 366.48 45.066C368.174 46.214 369.432 47.69 370.252 49.494C371.673 52.7193 371.892 56.6827 370.908 61.384C370.361 63.9533 369.705 66.796 368.94 69.912C368.174 72.9733 367.026 76.0073 365.496 79.014C363.965 82.0207 361.97 84.836 359.51 87.46C357.05 90.084 353.852 92.1613 349.916 93.692C347.565 94.6213 345.488 94.9493 343.684 94.676C341.934 94.4573 340.622 94.102 339.748 93.61C338.873 93.118 338.272 92.4073 337.944 91.478C336.85 94.594 335.812 97.7373 334.828 100.908C333.898 104.133 332.641 107.195 331.056 110.092C329.962 110.803 328.623 111.322 327.038 111.65C325.452 112.033 323.894 111.951 322.364 111.404C320.833 110.912 319.74 109.983 319.084 108.616C318.373 107.304 318.018 105.855 318.018 104.27C318.018 102.138 318.537 99.5413 319.576 96.48C321.106 91.9427 322.364 88.444 323.348 85.984C324.277 83.524 324.878 81.9387 325.152 81.228C325.425 80.4627 325.698 79.67 325.972 78.85C327.174 75.6793 328.049 73.11 328.596 71.142C329.197 69.1193 329.744 67.37 330.236 65.894V65.812C330.782 63.4067 331.63 60.8647 332.778 58.186C333.98 55.4527 334.8 53.7853 335.238 53.184C336.167 52.2547 337.124 51.6807 338.108 51.462C339.092 51.2433 340.212 51.1067 341.47 51.052H341.716L343.274 51.462ZM349.506 65.156C348.85 66.304 347.756 67.37 346.226 68.354L345.488 70.076C344.941 71.4973 344.422 72.946 343.93 74.422C343.438 75.898 342.891 77.3467 342.29 78.768C342.836 79.3147 343.246 79.834 343.52 80.326C346.581 77.6473 349.369 74.1213 351.884 69.748C352.868 67.944 353.496 66.14 353.77 64.336C354.098 62.532 354.18 61.384 354.016 60.892C353.852 60.4 353.578 60.154 353.196 60.154C352.868 60.154 352.512 60.2633 352.13 60.482C351.802 60.646 351.528 60.8373 351.31 61.056C351.146 61.22 351.173 61.22 351.392 61.056C350.79 61.7667 350.353 62.3953 350.08 62.942C349.806 63.434 349.615 64.172 349.506 65.156ZM400.337 72.864C399.298 73.356 398.287 73.7387 397.303 74.012C396.319 74.2853 395.171 74.5587 393.859 74.832C390.415 75.5427 387.927 75.9527 386.397 76.062C386.561 76.6087 387.381 77.2647 388.857 78.03C389.841 78.194 390.907 78.0573 392.055 77.62C393.257 77.128 394.487 76.6907 395.745 76.308C397.057 75.8707 398.314 75.6247 399.517 75.57C400.774 75.5153 401.949 75.98 403.043 76.964C403.48 77.948 403.835 78.522 404.109 78.686C404.382 78.85 404.628 78.932 404.847 78.932C405.065 78.932 405.311 79.014 405.585 79.178C405.858 79.342 406.241 79.9707 406.733 81.064C407.279 82.1573 407.143 83.196 406.323 84.18C405.557 85.164 404.355 86.0113 402.715 86.722C401.075 87.4327 399.161 88.0067 396.975 88.444C394.788 88.8813 392.601 89.182 390.415 89.346C385.495 89.7287 381.75 89.346 379.181 88.198C375.463 86.9407 373.058 84.4533 371.965 80.736C370.543 75.816 371.336 70.076 374.343 63.516C375.709 60.4547 377.869 57.1747 380.821 53.676C383.39 50.6147 386.26 48.4007 389.431 47.034C393.093 45.4487 396.92 44.7107 400.911 44.82C405.175 44.9293 408.127 46.788 409.767 50.396C410.587 52.3093 410.751 54.988 410.259 58.432C409.384 62.9147 408.236 66.0853 406.815 67.944C405.393 69.748 403.234 71.388 400.337 72.864ZM395.581 59.908C392.683 59.3067 390.415 60.9467 388.775 64.828C388.283 65.8667 387.9 66.96 387.627 68.108C389.485 68.3267 391.453 67.288 393.531 64.992C394.296 64.0627 394.87 63.1333 395.253 62.204C395.635 61.22 395.745 60.4547 395.581 59.908ZM419.805 51.052C420.571 49.084 421.637 47.608 423.003 46.624C424.425 45.5853 425.764 44.9567 427.021 44.738C428.333 44.4647 429.399 44.6013 430.219 45.148C431.094 45.6947 431.395 46.542 431.121 47.69C432.16 46.6513 433.663 45.6947 435.631 44.82C437.599 43.9453 439.157 43.344 440.305 43.016C441.453 42.688 442.437 42.524 443.257 42.524C445.061 42.6333 445.581 43.6173 444.815 45.476C445.745 45.64 446.428 46.2413 446.865 47.28C447.303 48.3187 447.357 49.4667 447.029 50.724C446.701 51.9813 445.963 53.2113 444.815 54.414C443.667 55.6167 442.109 56.4367 440.141 56.874C438.228 57.3113 436.615 58.3227 435.303 59.908C434.046 61.4387 432.925 63.352 431.941 65.648C430.301 69.5293 428.825 75.0233 427.513 82.13C427.076 84.6993 425.299 86.8587 422.183 88.608C419.231 90.3027 416.525 90.7947 414.065 90.084C411.277 89.3187 410.047 87.2687 410.375 83.934C410.485 81.5833 411.195 78.4673 412.507 74.586C413.819 70.65 414.831 67.698 415.541 65.73C416.252 63.7073 416.744 62.1767 417.017 61.138L419.805 51.052Z" fill="url(#paint0_linear_30_186)"/>
</g>
<defs>
<filter id="filter0_d_30_186" x="13.9828" y="14.2681" width="433.539" height="97.9561" filterUnits="userSpaceOnUse" color-interpolation-filters="sRGB">
<feFlood flood-opacity="0" result="BackgroundImageFix"/>
<feColorMatrix in="SourceAlpha" type="matrix" values="0 0 0 0 0 0 0 0 0 0 0 0 0 0 0 0 0 0 127 0" result="hardAlpha"/>
<feOffset dy="-3"/>
<feComposite in2="hardAlpha" operator="out"/>
<feColorMatrix type="matrix" values="0 0 0 0 0.883333 0 0 0 0 1 0 0 0 0 0 0 0 0 1 0"/>
<feBlend mode="normal" in2="BackgroundImageFix" result="effect1_dropShadow_30_186"/>
<feBlend mode="normal" in="SourceGraphic" in2="effect1_dropShadow_30_186" result="shape"/>
</filter>
<linearGradient id="paint0_linear_30_186" x1="229.5" y1="14" x2="229.5" y2="91" gradientUnits="userSpaceOnUse">
<stop stop-color="#275C5A"/>
<stop offset="1" stop-color="#8CBC66"/>
</linearGradient>
</defs>
</svg>
