<svg width="464" height="129" viewBox="0 0 464 129" fill="none" xmlns="http://www.w3.org/2000/svg">
<path fill-rule="evenodd" clip-rule="evenodd" d="M65.4936 91.4428C54.4149 102.371 39.5262 107.101 25.9749 102.449C1.5 97.4998 -4.39323 69.1852 4.25832 43.98C13.5 11.0001 56.3547 -5.08634 77 2.00005C88.1651 5.83241 90.3755 17.9312 88.6828 32.2211C94.5372 30.4699 100.446 30.2654 105.5 32C109.566 33.3956 112.659 35.9024 114.878 39.1876C121.083 33.8422 128.974 30.9865 137.245 31.8263C141.392 32.2473 145.258 33.5589 148.713 35.5793C156.927 11.6219 173.881 -0.00988486 189.078 3.39196C195.564 4.84368 200.791 8.82333 204.403 14.8576C215.389 7.45558 227.846 4.47424 236.548 6.42214C250.295 9.49928 253.136 16.4014 251.776 26.7294C257.219 24.7892 263.052 24.3037 268.842 25.5997C275.782 27.1532 281.687 31.0487 286.123 36.4586C296.664 25.3035 309.184 20.1388 319.553 24.1591C324.297 25.9987 328.694 32.2857 331.411 40.5966C346.12 29.8407 364.592 26.477 378.051 34.175C378.892 34.6562 379.678 35.2311 380.407 35.8906C390.471 26.1396 402.92 20.2346 413 25.9998C415.897 27.6566 418.385 30.1555 420.442 33.2335C427.397 29.8962 435.208 28.2283 443 28.9997C465.369 31.2145 471.337 51.3014 449.998 71.7421C449.463 77.1513 449.567 81.7856 449.657 85.7806C449.896 96.3953 450.034 102.496 437.797 106.623C429.86 109.3 419.718 104.483 411.417 96.5713C401.353 106.283 388.575 111.548 378 105.5C374.601 103.556 371.722 100.61 369.419 97.0158C363.212 101.676 355.407 104.303 346 103.5C337.5 135 318 123 318 123C310.743 118.421 309.02 109.957 309.474 99.6405C306.476 101.007 303.159 102.141 299.5 103C288.818 130.549 270.149 122 270.149 122C261.68 118.716 259.071 110.438 259.966 99.4596C251.368 101.319 242.7 101.499 236 99.9997C232.103 99.1274 229.179 97.7553 227.034 95.9306C218.933 105.707 209.222 110.819 200.146 108.787C194.615 107.549 190.001 103.811 186.526 98.2962C179.634 104.47 172.014 107.373 164.796 105.757C158.667 104.385 153.665 99.9426 150.089 93.4158C141.608 99.3179 130.952 102.409 122 101.5C114.395 100.728 109.284 97.1971 106.111 91.8217C98.0108 100.044 87.1139 103.671 77.2442 100.283C72.4397 98.634 68.4639 95.5235 65.4936 91.4428Z" fill="#012927"/>
<g filter="url(#filter0_d_30_186)">
<path d="M48.6849 23.09C56.5569 21.5047 62.6795 22.4887 67.0529 26.042C69.1302 27.7367 70.4969 30.1967 71.1529 33.422C71.8635 36.6473 71.5082 40.2553 70.0869 44.246C69.4855 46.1047 68.4469 47.4987 66.9709 48.428C65.4949 49.3573 63.9642 49.904 62.3789 50.068C60.8482 50.1773 59.4542 49.986 58.1969 49.494C56.9395 48.9473 56.2562 48.182 56.1469 47.198L55.4089 45.558C54.0969 43.59 51.8282 43.344 48.6029 44.82C45.8149 46.0773 43.0269 48.264 40.2389 51.38C37.2869 54.7147 35.3735 57.7213 34.4989 60.4C33.5149 63.352 33.0229 65.2927 33.0229 66.222C32.9135 68.2993 33.6515 70.158 35.2369 71.798C37.5329 73.274 39.8289 73.9573 42.1249 73.848C44.4209 73.684 46.4709 73.1647 48.2749 72.29C50.0789 71.3607 51.5549 70.322 52.7029 69.174C53.8509 68.026 54.4249 67.206 54.4249 66.714C54.5889 66.386 54.7529 66.058 54.9169 65.73C55.0809 65.402 55.2175 65.074 55.3269 64.746C55.1082 64.746 55.1629 64.746 55.4909 64.746C55.8189 64.6913 55.9009 64.6913 55.7369 64.746C55.5729 64.746 55.6549 64.7733 55.9829 64.828L56.4749 64.992C53.7962 67.3973 51.1995 67.8893 48.6849 66.468C47.7009 65.8667 46.8262 65.238 46.0609 64.582C45.2955 63.8713 44.5849 63.5433 43.9289 63.598C42.7262 62.942 42.4529 61.6573 43.1089 59.744C43.3822 58.9787 43.8742 58.268 44.5849 57.612C45.3502 56.9013 46.3069 56.4093 47.4549 56.136C52.9215 53.7853 57.9782 53.2387 62.6249 54.496C64.7022 55.0427 66.1235 56.1633 66.8889 57.858C67.7089 59.498 68.0642 61.3567 67.9549 63.434C67.8455 65.5113 67.3809 67.616 66.5609 69.748C65.7955 71.88 64.9482 73.602 64.0189 74.914C63.0895 76.1713 61.7775 77.6747 60.0829 79.424C58.4429 81.1733 56.3655 82.868 53.8509 84.508C47.6735 88.4987 41.0589 90.412 34.0069 90.248C23.7842 90.084 17.7435 85.902 15.8849 77.702C15.2835 75.078 15.0102 72.126 15.0649 68.846C15.6115 59.334 18.4542 50.4507 23.5929 42.196C26.0529 38.26 29.3602 34.3787 33.5149 30.552C36.1389 28.2013 39.0909 26.3973 42.3709 25.14C44.1202 24.4293 46.2249 23.746 48.6849 23.09ZM79.982 49.986C81.13 49.166 82.5513 48.9747 84.246 49.412C84.574 49.4667 84.902 49.494 85.23 49.494C86.4326 47.034 88.51 45.7493 91.462 45.64C92.2273 45.5853 93.2933 45.4487 94.66 45.23C96.0266 45.0113 97.6666 45.066 99.58 45.394C101.548 45.722 103.27 46.296 104.746 47.116C107.971 48.8653 109.912 51.38 110.568 54.66C111.88 59.4707 111.689 64.7187 109.994 70.404C108.19 76.6907 105.129 81.72 100.81 85.492C98.842 87.2413 96.7646 88.3347 94.578 88.772C92.3913 89.264 90.4233 89.5373 88.674 89.592C86.9246 89.6467 85.312 89.6467 83.836 89.592C82.4146 89.592 81.0206 89.4553 79.654 89.182C76.702 88.5807 74.2693 87.1867 72.356 85C70.1146 82.54 69.158 78.7133 69.486 73.52C69.7046 68.928 70.8526 64.3087 72.93 59.662C75.062 54.9607 77.4126 51.7353 79.982 49.986ZM94.414 66.468C93.0473 66.9053 91.7626 67.0967 90.56 67.042C89.9586 67.6433 89.412 68.2993 88.92 69.01C88.4826 69.666 87.8813 70.2947 87.116 70.896C86.3506 71.4427 85.968 71.6613 85.968 71.552C85.0386 72.864 84.2733 74.2307 83.672 75.652C83.0706 77.0187 83.0706 78.4127 83.672 79.834C85.8586 80.0527 87.4713 79.998 88.51 79.67C89.5486 79.342 90.5053 78.7133 91.38 77.784C92.3093 76.8547 93.02 75.7613 93.512 74.504C94.496 72.1533 94.7966 69.4747 94.414 66.468ZM149.06 49.822L149.388 49.904C149.497 49.904 149.552 49.9313 149.552 49.986C150.973 49.4393 152.149 49.8493 153.078 51.216C153.679 52.1453 154.144 53.5667 154.472 55.48C154.581 58.104 154.308 61.7393 153.652 66.386C152.395 75.7887 151.711 81.392 151.602 83.196C151.711 85.1093 150.536 86.4213 148.076 87.132C145.944 87.788 143.812 87.7607 141.68 87.05C139.439 86.2847 138.509 85.1093 138.892 83.524C138.455 84.344 138.017 84.918 137.58 85.246C137.143 85.6287 136.268 86.1207 134.956 86.722C133.699 87.378 131.895 87.8973 129.544 88.28C127.193 88.7173 124.843 88.8267 122.492 88.608C120.141 88.444 117.982 87.87 116.014 86.886C114.101 85.9567 112.816 84.4807 112.16 82.458C110.903 78.522 111.067 73.52 112.652 67.452C113.745 63.4613 115.713 59.9353 118.556 56.874C121.836 53.3753 125.553 50.478 129.708 48.182C132.824 46.4873 135.831 45.476 138.728 45.148C139.712 45.0387 140.559 45.066 141.27 45.23C142.035 45.394 142.828 45.558 143.648 45.722C144.523 45.886 145.343 46.132 146.108 46.46C148.076 47.28 149.06 48.4007 149.06 49.822ZM133.89 71.552C134.273 70.7867 134.573 69.83 134.792 68.682C135.065 67.534 135.421 66.2767 135.858 64.91C131.43 66.714 128.041 68.928 125.69 71.552C123.121 74.4493 123.285 76.4447 126.182 77.538C128.697 78.194 130.528 77.784 131.676 76.308C132.168 75.652 132.605 74.832 132.988 73.848C133.371 72.864 133.835 71.8527 134.382 70.814C134.218 71.0873 134.054 71.3333 133.89 71.552ZM177.689 23.664L177.771 23.336L178.509 22.598C179.11 21.1767 179.766 20.3293 180.477 20.056C180.859 19.9467 181.351 19.81 181.953 19.646C182.554 19.482 183.347 19.072 184.331 18.416C184.713 17.6507 185.506 17.3227 186.709 17.432C187.911 17.4867 189.087 17.8693 190.235 18.58C191.437 19.236 192.394 20.1653 193.105 21.368C193.87 22.5707 194.061 23.828 193.679 25.14C193.296 26.3973 192.968 27.354 192.695 28.01C192.476 28.6113 192.23 29.1853 191.957 29.732C191.738 30.2787 191.437 30.9073 191.055 31.618C190.727 32.274 190.289 33.176 189.743 34.324L187.037 39.982C186.763 40.6927 186.517 41.1027 186.299 41.212C186.135 41.3213 185.971 41.5127 185.807 41.786C186.299 41.6767 186.709 41.5947 187.037 41.54C187.365 41.4853 187.693 41.4307 188.021 41.376C188.786 41.2667 189.661 41.1573 190.645 41.048C191.246 41.1573 191.765 41.212 192.203 41.212H193.351C194.007 41.212 194.799 41.4033 195.729 41.786C196.658 42.114 197.259 42.7153 197.533 43.59C197.806 44.4647 197.833 45.3667 197.615 46.296C197.396 47.1707 196.959 47.9907 196.303 48.756C195.647 49.5213 194.799 49.9313 193.761 49.986C189.005 51.298 185.615 52.0087 183.593 52.118L183.101 52.692V52.774C182.554 54.086 181.953 55.7533 181.297 57.776C180.695 59.744 180.012 61.9033 179.247 64.254C178.536 66.55 177.798 68.9553 177.033 71.47C176.267 73.93 175.475 76.308 174.655 78.604C172.031 86.312 170.117 90.494 168.915 91.15C168.477 91.3687 168.013 91.5053 167.521 91.56C167.083 91.6693 166.837 91.7513 166.783 91.806C164.869 91.6967 163.284 91.314 162.027 90.658C160.769 90.002 159.922 89.3733 159.485 88.772C159.047 88.1707 158.938 87.4873 159.157 86.722C160.195 77.21 162.273 66.796 165.389 55.48C164.295 55.48 163.53 55.5893 163.093 55.808C162.273 56.2453 161.289 56.4913 160.141 56.546H160.059C159.184 56.4913 158.391 56.0813 157.681 55.316C156.97 54.5507 156.533 53.676 156.369 52.692C156.205 51.708 156.369 50.6967 156.861 49.658C157.353 48.6193 158.337 47.7993 159.813 47.198C161.562 46.706 162.847 46.296 163.667 45.968C165.252 45.312 166.564 44.8473 167.603 44.574C168.696 44.3007 169.297 44.1367 169.407 44.082C169.571 43.9727 169.68 43.8907 169.735 43.836C169.899 43.7267 170.309 43.672 170.965 43.672C171.293 42.0867 171.621 40.474 171.949 38.834C172.277 37.194 172.687 35.5267 173.179 33.832C174.272 29.896 175.775 26.5067 177.689 23.664ZM219.718 64.008C218.242 68.272 216.738 72.372 215.208 76.308C213.677 80.244 212.392 83.2233 211.354 85.246C210.37 87.3233 209.495 88.7447 208.73 89.51C207.964 90.2753 207.172 90.7947 206.352 91.068C205.586 91.3413 204.794 91.4507 203.974 91.396C203.208 91.3413 202.416 91.2867 201.596 91.232C197.004 90.5213 195.582 87.214 197.332 81.31C198.48 76.6087 199.409 72.782 200.12 69.83C200.83 66.8233 201.404 64.3633 201.842 62.45C202.334 60.482 202.744 58.8693 203.072 57.612C203.4 56.3 203.755 55.0153 204.138 53.758C204.52 52.5007 204.985 51.0793 205.532 49.494C206.133 47.9087 206.898 45.804 207.828 43.18C205.75 43.4533 203.892 43.2347 202.252 42.524C199.846 41.4853 198.862 39.244 199.3 35.8C199.518 34.2147 200.366 32.7387 201.842 31.372C202.607 30.6613 203.509 29.896 204.548 29.076C206.68 27.3813 210.916 25.5773 217.258 23.664C223.818 21.696 229.448 20.7667 234.15 20.876C235.407 20.6573 236.692 20.8213 238.004 21.368C239.37 21.86 240.464 22.5433 241.284 23.418C242.104 24.2927 242.514 25.2493 242.514 26.288C242.568 27.3267 241.912 28.256 240.546 29.076C239.89 29.5133 239.425 30.2513 239.152 31.29C238.878 32.274 238.578 33.34 238.25 34.488C237.922 35.5813 237.43 36.5927 236.774 37.522C236.172 38.4513 235.188 38.998 233.822 39.162C233.111 39.5447 232.1 39.818 230.788 39.982C229.53 40.146 228.683 40.2827 228.246 40.392C227.863 40.4467 227.644 40.5833 227.59 40.802C226.606 43.6993 225.43 47.2253 224.064 51.38C222.697 55.48 221.248 59.6893 219.718 64.008ZM208.648 42.278C208.538 42.278 208.484 42.3053 208.484 42.36C208.484 42.36 208.538 42.36 208.648 42.36V42.278ZM269.898 49.822L270.226 49.904C270.335 49.904 270.39 49.9313 270.39 49.986C271.811 49.4393 272.986 49.8493 273.916 51.216C274.517 52.1453 274.982 53.5667 275.31 55.48C275.419 58.104 275.146 61.7393 274.49 66.386C273.232 75.7887 272.549 81.392 272.44 83.196C272.549 85.1093 271.374 86.4213 268.914 87.132C266.782 87.788 264.65 87.7607 262.518 87.05C260.276 86.2847 259.347 85.1093 259.73 83.524C259.292 84.344 258.855 84.918 258.418 85.246C257.98 85.6287 257.106 86.1207 255.794 86.722C254.536 87.378 252.732 87.8973 250.382 88.28C248.031 88.7173 245.68 88.8267 243.33 88.608C240.979 88.444 238.82 87.87 236.852 86.886C234.938 85.9567 233.654 84.4807 232.998 82.458C231.74 78.522 231.904 73.52 233.49 67.452C234.583 63.4613 236.551 59.9353 239.394 56.874C242.674 53.3753 246.391 50.478 250.546 48.182C253.662 46.4873 256.668 45.476 259.566 45.148C260.55 45.0387 261.397 45.066 262.108 45.23C262.873 45.394 263.666 45.558 264.486 45.722C265.36 45.886 266.18 46.132 266.946 46.46C268.914 47.28 269.898 48.4007 269.898 49.822ZM254.728 71.552C255.11 70.7867 255.411 69.83 255.63 68.682C255.903 67.534 256.258 66.2767 256.696 64.91C252.268 66.714 248.878 68.928 246.528 71.552C243.958 74.4493 244.122 76.4447 247.02 77.538C249.534 78.194 251.366 77.784 252.514 76.308C253.006 75.652 253.443 74.832 253.826 73.848C254.208 72.864 254.673 71.8527 255.22 70.814C255.056 71.0873 254.892 71.3333 254.728 71.552ZM296.067 51.462C298.8 47.362 302.599 44.902 307.465 44.082C309.05 43.8087 310.991 43.6173 313.287 43.508C315.637 43.3987 317.633 43.918 319.273 45.066C320.967 46.214 322.225 47.69 323.045 49.494C324.466 52.7193 324.685 56.6827 323.701 61.384C323.154 63.9533 322.498 66.796 321.733 69.912C320.967 72.9733 319.819 76.0073 318.289 79.014C316.758 82.0207 314.763 84.836 312.303 87.46C309.843 90.084 306.645 92.1613 302.709 93.692C300.358 94.6213 298.281 94.9493 296.477 94.676C294.727 94.4573 293.415 94.102 292.541 93.61C291.666 93.118 291.065 92.4073 290.737 91.478C289.643 94.594 288.605 97.7373 287.621 100.908C286.691 104.133 285.434 107.195 283.849 110.092C282.755 110.803 281.416 111.322 279.831 111.65C278.245 112.033 276.687 111.951 275.157 111.404C273.626 110.912 272.533 109.983 271.877 108.616C271.166 107.304 270.811 105.855 270.811 104.27C270.811 102.138 271.33 99.5413 272.369 96.48C273.899 91.9427 275.157 88.444 276.141 85.984C277.07 83.524 277.671 81.9387 277.945 81.228C278.218 80.4627 278.491 79.67 278.765 78.85C279.967 75.6793 280.842 73.11 281.389 71.142C281.99 69.1193 282.537 67.37 283.029 65.894V65.812C283.575 63.4067 284.423 60.8647 285.571 58.186C286.773 55.4527 287.593 53.7853 288.031 53.184C288.96 52.2547 289.917 51.6807 290.901 51.462C291.885 51.2433 293.005 51.1067 294.263 51.052H294.509L296.067 51.462ZM302.299 65.156C301.643 66.304 300.549 67.37 299.019 68.354L298.281 70.076C297.734 71.4973 297.215 72.946 296.723 74.422C296.231 75.898 295.684 77.3467 295.083 78.768C295.629 79.3147 296.039 79.834 296.313 80.326C299.374 77.6473 302.162 74.1213 304.677 69.748C305.661 67.944 306.289 66.14 306.563 64.336C306.891 62.532 306.973 61.384 306.809 60.892C306.645 60.4 306.371 60.154 305.989 60.154C305.661 60.154 305.305 60.2633 304.923 60.482C304.595 60.646 304.321 60.8373 304.103 61.056C303.939 61.22 303.966 61.22 304.185 61.056C303.583 61.7667 303.146 62.3953 302.873 62.942C302.599 63.434 302.408 64.172 302.299 65.156ZM344.274 51.462C347.007 47.362 350.806 44.902 355.672 44.082C357.257 43.8087 359.198 43.6173 361.494 43.508C363.844 43.3987 365.84 43.918 367.48 45.066C369.174 46.214 370.432 47.69 371.252 49.494C372.673 52.7193 372.892 56.6827 371.908 61.384C371.361 63.9533 370.705 66.796 369.94 69.912C369.174 72.9733 368.026 76.0073 366.496 79.014C364.965 82.0207 362.97 84.836 360.51 87.46C358.05 90.084 354.852 92.1613 350.916 93.692C348.565 94.6213 346.488 94.9493 344.684 94.676C342.934 94.4573 341.622 94.102 340.748 93.61C339.873 93.118 339.272 92.4073 338.944 91.478C337.85 94.594 336.812 97.7373 335.828 100.908C334.898 104.133 333.641 107.195 332.056 110.092C330.962 110.803 329.623 111.322 328.038 111.65C326.452 112.033 324.894 111.951 323.364 111.404C321.833 110.912 320.74 109.983 320.084 108.616C319.373 107.304 319.018 105.855 319.018 104.27C319.018 102.138 319.537 99.5413 320.576 96.48C322.106 91.9427 323.364 88.444 324.348 85.984C325.277 83.524 325.878 81.9387 326.152 81.228C326.425 80.4627 326.698 79.67 326.972 78.85C328.174 75.6793 329.049 73.11 329.596 71.142C330.197 69.1193 330.744 67.37 331.236 65.894V65.812C331.782 63.4067 332.63 60.8647 333.778 58.186C334.98 55.4527 335.8 53.7853 336.238 53.184C337.167 52.2547 338.124 51.6807 339.108 51.462C340.092 51.2433 341.212 51.1067 342.47 51.052H342.716L344.274 51.462ZM350.506 65.156C349.85 66.304 348.756 67.37 347.226 68.354L346.488 70.076C345.941 71.4973 345.422 72.946 344.93 74.422C344.438 75.898 343.891 77.3467 343.29 78.768C343.836 79.3147 344.246 79.834 344.52 80.326C347.581 77.6473 350.369 74.1213 352.884 69.748C353.868 67.944 354.496 66.14 354.77 64.336C355.098 62.532 355.18 61.384 355.016 60.892C354.852 60.4 354.578 60.154 354.196 60.154C353.868 60.154 353.512 60.2633 353.13 60.482C352.802 60.646 352.528 60.8373 352.31 61.056C352.146 61.22 352.173 61.22 352.392 61.056C351.79 61.7667 351.353 62.3953 351.08 62.942C350.806 63.434 350.615 64.172 350.506 65.156ZM401.337 72.864C400.298 73.356 399.287 73.7387 398.303 74.012C397.319 74.2853 396.171 74.5587 394.859 74.832C391.415 75.5427 388.927 75.9527 387.397 76.062C387.561 76.6087 388.381 77.2647 389.857 78.03C390.841 78.194 391.907 78.0573 393.055 77.62C394.257 77.128 395.487 76.6907 396.745 76.308C398.057 75.8707 399.314 75.6247 400.517 75.57C401.774 75.5153 402.949 75.98 404.043 76.964C404.48 77.948 404.835 78.522 405.109 78.686C405.382 78.85 405.628 78.932 405.847 78.932C406.065 78.932 406.311 79.014 406.585 79.178C406.858 79.342 407.241 79.9707 407.733 81.064C408.279 82.1573 408.143 83.196 407.323 84.18C406.557 85.164 405.355 86.0113 403.715 86.722C402.075 87.4327 400.161 88.0067 397.975 88.444C395.788 88.8813 393.601 89.182 391.415 89.346C386.495 89.7287 382.75 89.346 380.181 88.198C376.463 86.9407 374.058 84.4533 372.965 80.736C371.543 75.816 372.336 70.076 375.343 63.516C376.709 60.4547 378.869 57.1747 381.821 53.676C384.39 50.6147 387.26 48.4007 390.431 47.034C394.093 45.4487 397.92 44.7107 401.911 44.82C406.175 44.9293 409.127 46.788 410.767 50.396C411.587 52.3093 411.751 54.988 411.259 58.432C410.384 62.9147 409.236 66.0853 407.815 67.944C406.393 69.748 404.234 71.388 401.337 72.864ZM396.581 59.908C393.683 59.3067 391.415 60.9467 389.775 64.828C389.283 65.8667 388.9 66.96 388.627 68.108C390.485 68.3267 392.453 67.288 394.531 64.992C395.296 64.0627 395.87 63.1333 396.253 62.204C396.635 61.22 396.745 60.4547 396.581 59.908ZM420.805 51.052C421.571 49.084 422.637 47.608 424.003 46.624C425.425 45.5853 426.764 44.9567 428.021 44.738C429.333 44.4647 430.399 44.6013 431.219 45.148C432.094 45.6947 432.395 46.542 432.121 47.69C433.16 46.6513 434.663 45.6947 436.631 44.82C438.599 43.9453 440.157 43.344 441.305 43.016C442.453 42.688 443.437 42.524 444.257 42.524C446.061 42.6333 446.581 43.6173 445.815 45.476C446.745 45.64 447.428 46.2413 447.865 47.28C448.303 48.3187 448.357 49.4667 448.029 50.724C447.701 51.9813 446.963 53.2113 445.815 54.414C444.667 55.6167 443.109 56.4367 441.141 56.874C439.228 57.3113 437.615 58.3227 436.303 59.908C435.046 61.4387 433.925 63.352 432.941 65.648C431.301 69.5293 429.825 75.0233 428.513 82.13C428.076 84.6993 426.299 86.8587 423.183 88.608C420.231 90.3027 417.525 90.7947 415.065 90.084C412.277 89.3187 411.047 87.2687 411.375 83.934C411.485 81.5833 412.195 78.4673 413.507 74.586C414.819 70.65 415.831 67.698 416.541 65.73C417.252 63.7073 417.744 62.1767 418.017 61.138L420.805 51.052Z" fill="url(#paint0_linear_30_186)"/>
</g>
<defs>
<filter id="filter0_d_30_186" x="14.9828" y="14.2681" width="433.539" height="97.9561" filterUnits="userSpaceOnUse" color-interpolation-filters="sRGB">
<feFlood flood-opacity="0" result="BackgroundImageFix"/>
<feColorMatrix in="SourceAlpha" type="matrix" values="0 0 0 0 0 0 0 0 0 0 0 0 0 0 0 0 0 0 127 0" result="hardAlpha"/>
<feOffset dy="-3"/>
<feComposite in2="hardAlpha" operator="out"/>
<feColorMatrix type="matrix" values="0 0 0 0 0.883333 0 0 0 0 1 0 0 0 0 0 0 0 0 1 0"/>
<feBlend mode="normal" in2="BackgroundImageFix" result="effect1_dropShadow_30_186"/>
<feBlend mode="normal" in="SourceGraphic" in2="effect1_dropShadow_30_186" result="shape"/>
</filter>
<linearGradient id="paint0_linear_30_186" x1="230.5" y1="14" x2="230.5" y2="91" gradientUnits="userSpaceOnUse">
<stop stop-color="#275C5A"/>
<stop offset="1" stop-color="#8CBC66"/>
</linearGradient>
</defs>
</svg>
